<?xml version="1.0" encoding="UTF-8" standalone="no"?>
<svg
   id="Design"
   viewBox="0 0 139 149"
   version="1.1"
   width="139"
   height="149"
   xmlns="http://www.w3.org/2000/svg"
   xmlns:svg="http://www.w3.org/2000/svg">
  <g
     id="g1751"
     transform="translate(-30.499999,-2.800123)">
    <path
       class="cls-6"
       d="m 162.0847,76.156224 c -0.8,-13.999986 -31.99997,-44.419954 -37.05996,-49.209949 -5.06,-4.789996 -13.51999,-16.999983 -15.99999,-16.829983 -2.61,0.24 1.51,24.839974 1.83,42.439956 0.32,17.599982 -3.58,23.679976 -4.92999,23.349976 -1.35,-0.33 -5.929999,-0.999999 -5.929999,-0.999999 0,0 -4.589995,0.659999 -5.929993,0.999999 -1.339999,0.34 -5.269995,-5.739994 -4.919995,-23.349976 0.349999,-17.609982 4.439995,-42.199956 1.809998,-42.439956 -2.459998,-0.19 -10.929989,11.999987 -15.999984,16.829983 -5.069995,4.829995 -36.239962,35.179963 -37.039962,49.209949 -0.629999,11.099988 3.659997,14.299986 13.079987,18.759981 9.41999,4.459996 12.369987,5.799995 11.699988,8.239995 -0.669999,2.43999 -6.739993,3.44999 -7.079993,9.42999 -0.339999,5.97999 1.099999,15.48998 17.629982,22.67997 16.529983,7.19 21.999977,9.21999 26.749972,9.21999 4.749999,0 10.219989,-1.99999 26.749979,-9.21999 16.52998,-7.21999 17.28998,-18.81998 16.99998,-24.78997 -0.29,-5.96999 -5.71999,-4.88 -6.38999,-7.31999 -0.67,-2.44 2.26999,-3.779999 11.68998,-8.239995 9.41999,-4.459995 13.66999,-7.659993 13.03999,-18.759981 z"
       id="path44"
       style="stroke-width:0.999999;stroke-miterlimit:4;stroke-dasharray:none" />
    <path
       class="cls-3"
       d="m 142.97472,110.65619 c -0.33,-5.71999 -5.66999,-4.67 -6.33999,-6.99999 -0.006,-0.0532 -0.006,-0.10682 0,-0.16 l -11.35999,-3 -21.27357,-2.728797 c 0,0 -5.174149,3.315687 -3.63601,3.418677 2.65625,0.17785 2.83378,3.14637 4.59545,4.90413 1.76167,1.75777 9.42414,11.76597 19.62413,11.42597 10.19999,-0.34 13.29999,-7.76999 16.64998,-3.44999 1.86,2.39999 -2.99999,13.50998 -12.08999,16.30998 -9.08999,2.8 -16.33998,5.71999 -21.05998,6.99999 -5.304,1.31826 -10.824176,1.51918 -16.20998,0.59 -5.299995,-1 -24.619975,-6.54999 -24.999974,-6.66999 2.00065,1.22823 4.101444,2.28532 6.279993,3.15999 16.389983,6.89 21.779978,8.83 26.529973,8.83 4.749998,0 10.109988,-1.93 26.479978,-8.86 16.36998,-6.92999 17.13998,-18.06998 16.80998,-23.76997 z"
       id="path46"
       style="fill:#353f6e;fill-opacity:1;stroke-width:0.999999;stroke-miterlimit:4;stroke-dasharray:none" />
    <path
       class="cls-3"
       d="m 65.074797,108.07619 c 0,0 3.809997,9.23999 22.229978,7.65999 2.300341,-0.19732 2.657469,-2.60325 3.278898,-4.27538 1.005524,-2.70563 2.785534,-3.56602 4.507302,-5.36579 1.671746,-1.74747 2.856299,-4.55725 5.257605,-4.95434 3.2895,-0.54396 3.5347,-4.881656 3.44618,-7.914463 -0.27,-9.249991 -12.23999,-17.169983 -12.23999,-17.169983 z"
       id="path48"
       style="fill:#353f6e;fill-opacity:1;stroke-width:0.999999;stroke-miterlimit:4;stroke-dasharray:none" />
    <path
       class="cls-2"
       d="m 99.384762,103.7962 c 0,-0.37 -0.409999,-0.51 -0.579999,-0.2 -0.62,1.07 -1.189999,3.50999 -2.339998,4.52999 -1.499998,1.31 -3.329996,2.94 -2.679997,4.65 0.649999,1.71 2.499997,0.52 3.999996,-0.66 0.619999,-0.51 0.999999,-0.8 1.259998,-1 a 0.99999897,0.99999897 0 0 0 0.39,-0.82 z"
       id="path52-0"
       style="fill:#353f6e;fill-opacity:1;stroke-width:0.999999;stroke-miterlimit:4;stroke-dasharray:none" />
    <path
       class="cls-2"
       d="m 100.64476,103.5662 c 0,-0.37 0.4,-0.51 0.58,-0.2 0.62,1.07 1.19,3.51999 2.34,4.52999 1.49,1.31 3.31999,2.94 2.68,4.65 -0.64,1.71 -2.5,0.53 -4,-0.65 -0.62,-0.51 -1,-0.81 -1.26,-1 a 0.99999897,0.99999897 0 0 1 -0.39,-0.82 z"
       id="path54-2"
       style="fill:#353f6e;fill-opacity:1;stroke-width:0.999999;stroke-miterlimit:4;stroke-dasharray:none" />
    <path
       class="cls-1"
       d="m 120.24474,120.35618 a 43.149956,43.149956 0 0 1 -0.61,5.99999 c 1.78,-0.4 4.93,-2.29999 5.81,-4.64999 a 14.519985,14.519985 0 0 0 -5.2,-1.35 z"
       id="path58-7"
       style="stroke-width:0.999999;stroke-miterlimit:4;stroke-dasharray:none" />
    <path
       class="cls-2"
       d="m 137.36473,121.95618 c -2.75,2.27 -7.26,1.41 -12.06999,0.13 a 4.6899952,4.6899952 0 0 0 -2.27,-1.18 8.769991,8.769991 0 0 0 -2.83,-0.22 10.789989,10.789989 0 0 1 -2.39999,-0.57 c -5.86,-3.22 -15.84999,-3.2 -15.84999,-3.2 0,0 -8.669992,0 -15.549985,3.23 -6.599993,3.12 -15.599983,5.20999 -19.819979,1.81 a 11.419988,11.419988 0 0 1 -2.999997,-4.45 c -0.26,-0.65 0.559999,-1.14 0.919999,-0.56 1.459999,2.35 3.569996,3.34 6.429993,3.85 7.819992,1.39 17.369983,-5.06 30.999969,-5.06 13.62999,0 23.92998,4.17 30.99997,5.06 2.89,0.37 5,-1.5 6.42999,-3.85 0.36,-0.58 1.18,-0.09 0.92,0.56 a 11.209988,11.209988 0 0 1 -2.90999,4.45 z"
       id="path60"
       style="fill:#353f6e;fill-opacity:1;stroke-width:0.999999;stroke-miterlimit:4;stroke-dasharray:none" />
    <path
       class="cls-8"
       d="m 95.794766,123.65618 c -0.999999,-0.71 0.999999,-2.3 5.589994,-2.3 4.25,0 5.90999,1.38 5.67999,2 -0.42,1.09 -3.65999,-0.24 -5.80999,-0.24 -2.149998,0 -4.459995,1.24 -5.459994,0.54 z"
       id="path62-8"
       style="fill:#353f6e;fill-opacity:1;stroke-width:0.999999;stroke-miterlimit:4;stroke-dasharray:none" />
    <path
       class="cls-3"
       d="m 88.204774,13.286289 c 0,0 -14.409986,18.91998 -21.149979,25.669973 -6.739993,6.749993 -20.609978,24.399975 -23.449975,29.26997 -2.839998,4.869995 -6.449994,16.279983 3.999995,22.819977 -5.219994,-12.709987 4.789995,-16.429984 7.999992,-15.839984 3.209997,0.589999 2.919997,12.079987 2.919997,12.079987 l 5.179995,6.779994 18.99998,-1.319998 10.559989,-15.389985 -3.859996,-3.599997 A 27.189972,27.189972 0 0 0 75.794786,68.226232 c -8.219991,-0.879999 -11.279988,-0.609999 -11.279988,-0.609999 0,0 1.169999,-7.659992 9.77999,-6.329994 -2.499997,-3.719996 -3.389997,-23.279976 13.909986,-47.99995 z"
       id="path68-0"
       style="fill:#353f6e;fill-opacity:1;stroke-width:0.999999;stroke-miterlimit:4;stroke-dasharray:none" />
    <path
       class="cls-3"
       d="m 115.37475,26.636275 c 0,0 2.11,14.519985 2.22,23.189976 0.11,8.669991 2.10999,22.109977 -1.66,25.659974 -3.77,3.549996 2.29,4.999994 2.29,4.999994 l 23.25997,14.409987 c 0,0 5.83,-0.999999 8.60999,-2.849998 2.78,-1.849999 7.28,-4.939995 8.10999,-8.669992 -3.76999,3.839996 -6.99999,6.729993 -9.60999,3.559997 -2.60999,-3.169997 -0.79999,-18.279981 -10.43998,-25.669974 1.60999,3.389997 -0.39,8.999991 -4.17,8.339992 -3.78,-0.66 -9.71999,-9.619991 -11.18999,-17.249983 -1.47,-7.629992 -7.41999,-25.719973 -7.41999,-25.719973 z"
       id="path70-9"
       style="fill:#353f6e;fill-opacity:1;stroke-width:0.999999;stroke-miterlimit:4;stroke-dasharray:none" />
    <path
       class="cls-1"
       d="m 56.894806,81.576218 -9.99999,-8.829991 a 4.3999955,4.3999955 0 0 1 -0.339999,-6.209993 v 0 a 4.4099955,4.4099955 0 0 1 6.239993,-0.34 l 9.84999,8.699991 a 17.799982,17.799982 0 0 0 -5.749994,6.679993 z"
       id="path78"
       style="stroke-width:0.999999;stroke-miterlimit:4;stroke-dasharray:none" />
    <path
       class="cls-9"
       d="m 98.324763,92.766208 v 0.08 A 21.389978,21.389978 0 0 1 77.004785,114.23619 21.469978,21.469978 0 0 0 98.324763,92.766208 Z"
       id="path80-0"
       style="stroke-width:0.999999;stroke-miterlimit:4;stroke-dasharray:none" />
    <path
       class="cls-9"
       d="m 55.544807,92.526208 c 0,-0.5 0,-0.999999 0.07,-1.479999 -0.03,0.49 -0.07,0.979999 -0.07,1.479999 z"
       id="path82"
       style="stroke-width:0.999999;stroke-miterlimit:4;stroke-dasharray:none" />
    <path
       class="cls-9"
       d="m 76.934785,114.23619 v 0 A 21.399978,21.399978 0 0 1 55.534807,92.846208 v -0.11 a 21.469978,21.469978 0 0 0 21.399978,21.499982 z"
       id="path84-8"
       style="stroke-width:0.999999;stroke-miterlimit:4;stroke-dasharray:none" />
    <path
       class="cls-1"
       d="m 55.544807,92.526208 c 0,-0.5 0,-0.999999 0.07,-1.479999 a 21.569978,21.569978 0 0 1 9.129991,-15.999984 21.199978,21.199978 0 0 1 12.189987,-3.889996 21.469978,21.469978 0 0 1 21.389978,21.539979 v 0.07 A 21.469978,21.469978 0 0 1 77.004785,114.23619 h -0.07 A 21.469978,21.469978 0 0 1 55.534807,92.736208 v 0 c 0,-0.1 0.01,-0.15 0.01,-0.21 z"
       id="path86"
       style="stroke-width:0.999999;stroke-miterlimit:4;stroke-dasharray:none" />
    <circle
       class="cls-10"
       cx="77.014786"
       cy="93.05619"
       r="17.479982"
       id="circle88"
       style="fill:#353f6e;fill-opacity:1;stroke-width:0.999999;stroke-miterlimit:4;stroke-dasharray:none" />
    <path
       class="cls-1"
       d="m 61.204801,81.356218 33.289966,4.269996 -3.379996,-4.269996 c 0,0 -4.759995,-4.449995 -5.069995,-4.559995 -0.31,-0.11 -4.869995,-2.439997 -6.939993,-2.439997 -2.069998,0 -6.939993,-1.759999 -8.999991,-0.72 -2.059998,1.039999 -8.889991,7.139993 -8.889991,7.139993 z"
       id="path90"
       style="stroke-width:0.999999;stroke-miterlimit:4;stroke-dasharray:none" />
    <polygon
       class="cls-1"
       points="69.61,101.66 84.32,96.17 79.36,87.42 56.56,102.59 77.07,95.01 "
       id="polygon92"
       transform="matrix(0.99999897,0,0,0.99999897,11.794852,-5.6436922)"
       style="stroke-width:1;stroke-miterlimit:4;stroke-dasharray:none" />
    <path
       class="cls-3"
       d="m 57.904805,80.516219 c 0,0 -9.179991,-8.279991 -9.45999,-8.579991 a 2.9999969,2.9999969 0 0 1 -0.15,-2.999997 c 0.589999,-0.829999 0.12,0.6 0.549999,1.579999 0.43,0.979999 11.269989,6.999992 11.269989,6.999992 z"
       id="path94"
       style="fill:#353f6e;fill-opacity:1;stroke-width:0.999999;stroke-miterlimit:4;stroke-dasharray:none" />
    <path
       class="cls-1"
       d="m 143.13472,81.356218 9.75999,-8.609991 a 4.2999956,4.2999956 0 0 0 0.33,-6.069993 v 0 a 4.2999956,4.2999956 0 0 0 -6.05999,-0.33 l -9.61999,8.489991 a 17.379982,17.379982 0 0 1 5.58999,6.519993 z"
       id="path96"
       style="stroke-width:0.999999;stroke-miterlimit:4;stroke-dasharray:none" />
    <path
       class="cls-9"
       d="m 102.16476,92.766208 v 0.08 a 21.389978,21.389978 0 0 0 21.31998,21.389982 21.469978,21.469978 0 0 1 -21.31998,-21.469982 z"
       id="path98"
       style="stroke-width:0.999999;stroke-miterlimit:4;stroke-dasharray:none" />
    <path
       class="cls-9"
       d="m 144.94472,92.526208 c 0,-0.5 0,-0.999999 -0.07,-1.479999 0.04,0.49 0.07,0.979999 0.07,1.479999 z"
       id="path100"
       style="stroke-width:0.999999;stroke-miterlimit:4;stroke-dasharray:none" />
    <path
       class="cls-9"
       d="m 123.56474,114.23619 v 0 a 21.389978,21.389978 0 0 0 21.38998,-21.389982 v -0.11 a 21.459978,21.459978 0 0 1 -21.38998,21.499982 z"
       id="path102"
       style="stroke-width:0.999999;stroke-miterlimit:4;stroke-dasharray:none" />
    <path
       class="cls-1"
       d="m 144.94472,92.526208 c 0,-0.5 0,-0.999999 -0.07,-1.479999 a 21.569978,21.569978 0 0 0 -9.12999,-15.999984 21.169978,21.169978 0 0 0 -12.17999,-3.849996 21.469978,21.469978 0 0 0 -21.39998,21.539979 v 0.07 a 21.469978,21.469978 0 0 0 21.31998,21.469982 h 0.08 a 21.459978,21.459978 0 0 0 21.38998,-21.499982 v 0 c 0,-0.14 -0.01,-0.19 -0.01,-0.25 z"
       id="path104"
       style="stroke-width:0.999999;stroke-miterlimit:4;stroke-dasharray:none" />
    <circle
       class="cls-10"
       cx="123.38473"
       cy="93.05619"
       r="17.479982"
       id="circle106"
       style="fill:#353f6e;fill-opacity:1;stroke-width:0.999999;stroke-miterlimit:4;stroke-dasharray:none" />
    <path
       class="cls-1"
       d="m 138.03473,81.356218 -32.79997,4.869995 1.99999,-4.409995 c 0,0 5.65,-4.909995 6,-4.999995 0.35,-0.09 4.83,-2.459997 6.89999,-2.459997 2.07,0 6.94,-1.759999 8.99999,-0.72 2.06,1.039999 8.89,7.139993 8.89,7.139993 z"
       id="path108"
       style="stroke-width:0.999999;stroke-miterlimit:4;stroke-dasharray:none" />
    <polygon
       class="cls-1"
       points="115.94,100.41 130.65,94.92 125.69,86.16 102.9,101.34 123.4,93.75 "
       id="polygon110"
       transform="matrix(0.99999897,0,0,0.99999897,11.794852,-5.6436922)"
       style="stroke-width:1;stroke-miterlimit:4;stroke-dasharray:none" />
    <path
       class="cls-3"
       d="m 142.79472,80.976219 c 0,0 9.17999,-8.279992 9.45999,-8.579991 a 2.9999969,2.9999969 0 0 0 0.15,-2.999997 c -0.59,-0.829999 -0.12,0.599999 -0.56,1.589998 -0.44,0.989999 -11.25999,6.999993 -11.25999,6.999993 z"
       id="path112"
       style="fill:#353f6e;fill-opacity:1;stroke-width:0.999999;stroke-miterlimit:4;stroke-dasharray:none" />
  </g>
  <defs
     id="defs4">
    <style
       id="style2">.cls-1{fill:#f3f3f3;}.cls-2{fill:#6271b6;}.cls-3{fill:#424d87;}.cls-4{fill:#7482c4;}.cls-5{fill:#353f6e;}.cls-6{fill:#4f5da3;}.cls-7{fill:#7c8bd1;}.cls-8{fill:#ccc;}.cls-9{fill:#a5afd4;}</style>
  </defs>
</svg>
